<svg xmlns="http://www.w3.org/2000/svg" width="95" height="32" fill="none"><g clip-path="url(#A)"><path d="M23.614 7.109c-1.532 0-2.864.502-3.995 1.507-1.159 1.029-1.894 2.385-2.206 4.066l-1.825 1.623-1.49 1.618c-.459-.999-.753-2.176-.882-3.531s-.028-3.054.302-5.096c1.057-.527 1.989-1.357 2.796-2.488.771-1.08 1.054-2.444.852-4.092a3.46 3.46 0 0 1 .394.339l6.054 6.054z" fill="#5a7e64"/><path d="M25.754 9.248l3.448 3.448a3.44 3.44 0 0 1 0 4.863l-4.108 4.107c-1.289-1.148-2.785-1.674-4.489-1.577-1.726.098-3.238.865-4.535 2.3-.751-.001-1.455-.067-2.113-.198s-1.278-.366-1.861-.707c.686-1.194 1.647-2.538 2.882-4.032s2.383-2.666 3.445-3.515c1.964.319 3.626-.011 4.986-.991 1.333-.96 2.115-2.193 2.346-3.699z" fill="#adae5c"/><path d="M21.299 25.462L17.56 29.2a3.44 3.44 0 0 1-4.863 0l-2.989-2.989.737-1.744.95-1.838c.986.424 1.762.697 2.329.82s1.409.201 2.527.233c.828.796 1.552 1.302 2.171 1.519.611.214 1.57.301 2.877.261z" fill="#dbb450"/><path d="M8.629 25.134l-7.573-7.573a3.44 3.44 0 0 1 0-4.863L11.394 2.361c-.005 1.207.038 2.062.13 2.566.096.527.31 1.137.643 1.83-.415 2.357-.525 4.422-.33 6.193s.636 3.211 1.323 4.32c-1.006 1.261-1.86 2.481-2.563 3.661-.661 1.109-1.317 2.51-1.968 4.205z" fill="#41634a"/></g><path d="M38.965 29.83v-5.278h.817v.859h.041a2.85 2.85 0 0 1 .204-.378c.082-.123.177-.228.286-.317.116-.089.249-.157.399-.204.15-.055.327-.082.531-.082.347 0 .668.085.96.256.293.164.511.436.654.818h.02c.095-.286.272-.535.531-.747.266-.218.623-.327 1.073-.327.538 0 .957.177 1.257.532.306.348.46.842.46 1.483v3.385h-.817v-3.242c0-.471-.092-.825-.276-1.064s-.477-.358-.879-.358c-.163 0-.32.02-.47.061-.143.041-.273.102-.388.184a.89.89 0 0 0-.276.317c-.068.123-.102.269-.102.44v3.662h-.817v-3.242c0-.471-.092-.825-.276-1.064s-.47-.358-.858-.358c-.163 0-.32.02-.47.061a1.26 1.26 0 0 0-.398.184.99.99 0 0 0-.286.317c-.068.123-.102.269-.102.44v3.662h-.817zm10.912.123c-.354 0-.678-.065-.971-.194a2.17 2.17 0 0 1-.756-.552 2.75 2.75 0 0 1-.48-.869c-.116-.341-.174-.723-.174-1.146 0-.416.058-.794.174-1.135a2.61 2.61 0 0 1 .48-.869 2.11 2.11 0 0 1 .756-.562c.293-.129.617-.194.971-.194a2.31 2.31 0 0 1 .96.194 2.11 2.11 0 0 1 .756.563c.211.239.375.528.49.869s.174.719.174 1.135c0 .423-.058.805-.174 1.146-.116.334-.279.624-.49.869-.211.239-.463.423-.756.552-.286.13-.606.194-.96.194zm0-.726c.443 0 .804-.136 1.083-.409s.419-.689.419-1.248v-.757c0-.559-.14-.975-.419-1.248s-.64-.409-1.083-.409-.804.136-1.083.409-.419.689-.419 1.248v.757c0 .559.14.975.419 1.248s.64.409 1.083.409zm3.725.603v-5.278h.817v.859h.041c.13-.3.31-.539.542-.716.238-.177.555-.266.95-.266.545 0 .974.177 1.287.532.32.348.48.842.48 1.483v3.385h-.817v-3.242c0-.948-.398-1.422-1.195-1.422a1.89 1.89 0 0 0-.48.061 1.39 1.39 0 0 0-.409.184c-.123.082-.221.188-.296.317-.068.123-.102.269-.102.44v3.662h-.817zm6.216-6.515c-.177 0-.306-.041-.388-.123-.075-.089-.112-.201-.112-.338v-.133a.47.47 0 0 1 .112-.327c.082-.089.211-.133.388-.133s.303.044.378.133c.082.082.123.191.123.327v.133a.48.48 0 0 1-.123.338c-.075.082-.201.123-.378.123zm-.409 1.238h.817v5.278h-.817v-5.278zm3.719 5.277c-.286 0-.504-.078-.654-.235-.143-.164-.215-.375-.215-.634v-3.692h-.868v-.716h.49c.177 0 .296-.034.358-.102.068-.075.102-.201.102-.378v-.982h.736v1.463h1.155v.716h-1.155v3.846h1.073v.716h-1.022zm4.37.123c-.354 0-.678-.065-.971-.194s-.545-.314-.756-.552a2.75 2.75 0 0 1-.48-.869c-.116-.341-.174-.723-.174-1.146 0-.416.058-.794.174-1.135a2.61 2.61 0 0 1 .48-.869 2.11 2.11 0 0 1 .756-.562c.293-.129.617-.194.971-.194a2.31 2.31 0 0 1 .96.194 2.11 2.11 0 0 1 .756.563c.211.239.375.528.49.869s.174.719.174 1.135c0 .423-.058.805-.174 1.146-.116.334-.279.624-.49.869a2.17 2.17 0 0 1-.756.552c-.286.13-.606.194-.96.194zm0-.726c.443 0 .804-.136 1.083-.409S69 28.129 69 27.57v-.757c0-.559-.14-.975-.419-1.248s-.64-.409-1.083-.409-.804.136-1.083.409-.419.689-.419 1.248v.757c0 .559.14.975.419 1.248s.64.409 1.083.409zm3.725.603v-5.278h.817v.972h.051c.095-.252.266-.477.511-.675s.582-.297 1.011-.297h.317v.818h-.48c-.443 0-.79.085-1.042.256-.245.164-.368.372-.368.624v3.58h-.817zm4.16-6.515c-.177 0-.307-.041-.388-.123-.075-.089-.112-.201-.112-.338v-.133a.47.47 0 0 1 .112-.327c.082-.089.211-.133.388-.133s.303.044.378.133c.082.082.123.191.123.327v.133a.48.48 0 0 1-.123.338c-.075.082-.201.123-.378.123zm-.409 1.238h.817v5.278h-.817v-5.278zm2.554 5.277v-5.278h.817v.859h.041c.129-.3.31-.539.541-.716.238-.177.555-.266.95-.266.545 0 .974.177 1.287.532.32.348.48.842.48 1.483v3.385h-.817v-3.242c0-.948-.398-1.422-1.195-1.422-.163 0-.324.02-.48.061a1.39 1.39 0 0 0-.409.184c-.123.082-.221.188-.296.317-.068.123-.102.269-.102.44v3.662h-.817zm10.252.583c0 .546-.215.944-.644 1.197-.422.259-1.059.389-1.911.389-.824 0-1.417-.113-1.778-.337a1.07 1.07 0 0 1-.541-.962c0-.286.075-.511.225-.675.15-.157.354-.273.613-.348v-.113a.76.76 0 0 1-.47-.736c0-.266.085-.467.255-.604.17-.143.388-.249.654-.317v-.041c-.313-.15-.559-.365-.736-.644a1.83 1.83 0 0 1-.255-.972 1.87 1.87 0 0 1 .143-.736c.095-.225.228-.416.398-.573a1.87 1.87 0 0 1 .623-.379 2.39 2.39 0 0 1 .817-.133 2.35 2.35 0 0 1 1.001.204v-.092c0-.205.048-.372.143-.501.095-.136.252-.205.47-.205h.787v.716h-1.001v.337a1.64 1.64 0 0 1 .439.593c.109.225.163.481.163.767a1.88 1.88 0 0 1-.143.737c-.095.226-.232.419-.409.583a1.82 1.82 0 0 1-.623.368 2.39 2.39 0 0 1-.817.133c-.17 0-.341-.017-.511-.051a1.61 1.61 0 0 0-.48.215.42.42 0 0 0-.215.378.31.31 0 0 0 .225.317 1.72 1.72 0 0 0 .582.082h1.124c.654 0 1.127.126 1.42.378.3.245.45.586.45 1.023zm-.766.061a.62.62 0 0 0-.245-.511c-.157-.123-.439-.184-.848-.184h-1.757c-.327.15-.49.389-.49.716a.79.79 0 0 0 .255.593c.177.164.473.245.889.245h.756c.456 0 .81-.072 1.063-.215s.378-.358.378-.644zm-1.829-3.058c.347 0 .623-.082.828-.245.204-.171.306-.43.306-.777v-.286c0-.348-.102-.603-.306-.767-.204-.17-.48-.256-.828-.256s-.623.085-.828.256c-.204.164-.306.419-.306.767v.286c0 .348.102.607.306.777.204.164.48.245.828.245zM45.34 18.367c-1.008 0-1.916-.156-2.724-.469a5.56 5.56 0 0 1-2.065-1.428c-.568-.639-1.008-1.428-1.32-2.365-.312-.952-.468-2.06-.468-3.324 0-1.25.156-2.358.468-3.324.312-.98.752-1.797 1.32-2.45.568-.668 1.256-1.172 2.065-1.513s1.717-.511 2.724-.511c1.377 0 2.512.284 3.406.852.894.554 1.611 1.435 2.15 2.642l-2.788 1.449c-.199-.625-.511-1.122-.937-1.492-.411-.384-1.022-.575-1.831-.575-.951 0-1.717.313-2.299.938-.568.611-.851 1.506-.851 2.685v2.387c0 1.179.284 2.081.851 2.706.582.611 1.348.916 2.299.916.795 0 1.426-.213 1.895-.639.482-.44.837-.966 1.064-1.577l2.639 1.534c-.553 1.136-1.284 2.017-2.192 2.642-.894.611-2.029.916-3.406.916zm11.098-.256h-3.236V3.238h7.046c.681 0 1.298.114 1.852.341s1.022.554 1.405.98a4.19 4.19 0 0 1 .915 1.492c.213.583.319 1.229.319 1.939 0 1.009-.227 1.889-.681 2.642-.44.753-1.114 1.3-2.022 1.641l2.916 5.839h-3.597l-2.597-5.455h-2.32v5.455zm3.406-8.182c.482 0 .859-.121 1.128-.362.284-.256.426-.625.426-1.108v-.938c0-.483-.142-.845-.426-1.087-.27-.256-.646-.384-1.128-.384h-3.406v3.878h3.406zm13.453 8.438c-.979 0-1.873-.163-2.682-.49a5.45 5.45 0 0 1-2.065-1.449c-.568-.653-1.007-1.456-1.32-2.408-.312-.966-.468-2.081-.468-3.345s.156-2.372.468-3.324c.312-.966.752-1.769 1.32-2.408a5.35 5.35 0 0 1 2.065-1.47c.809-.327 1.703-.49 2.682-.49s1.873.163 2.682.49a5.35 5.35 0 0 1 2.065 1.47c.568.639 1.007 1.442 1.32 2.408.312.952.468 2.06.468 3.324s-.156 2.379-.468 3.345c-.312.952-.752 1.754-1.32 2.408a5.46 5.46 0 0 1-2.065 1.449c-.809.327-1.703.49-2.682.49zm0-2.877c.979 0 1.738-.32 2.278-.959.553-.639.83-1.556.83-2.749V9.566c0-1.193-.277-2.11-.83-2.749-.539-.639-1.298-.959-2.278-.959s-1.745.32-2.299.959c-.539.639-.809 1.556-.809 2.749v2.216c0 1.193.27 2.11.809 2.749.553.639 1.32.959 2.299.959zm9.235 2.621V3.238h7.024c.695 0 1.32.121 1.873.362.553.227 1.022.547 1.405.959a4.16 4.16 0 0 1 .915 1.513c.213.582.319 1.222.319 1.918 0 .71-.106 1.357-.319 1.939a4.2 4.2 0 0 1-.915 1.492c-.383.412-.851.739-1.405.98-.553.227-1.178.341-1.873.341h-3.789v5.37h-3.235zm3.235-8.182h3.406c.483 0 .859-.121 1.128-.362.284-.256.426-.625.426-1.108v-.938c0-.483-.142-.845-.426-1.087-.27-.256-.646-.384-1.128-.384h-3.406v3.878z" fill="#fff"/><defs><clipPath id="A"><path fill="#fff" d="M0 0h30.258v30.258H0z"/></clipPath></defs></svg>